<svg width="333" height="198" viewBox="0 0 333 198" fill="none" xmlns="http://www.w3.org/2000/svg">
<g clip-path="url(#clip0_30_260)">
<path d="M2.97131 138.807C3.12768 140.466 5.00433 141.721 7.19375 141.6C9.33102 141.479 10.947 139.981 10.7906 138.321L9.33102 124.355C41.9116 169.491 103.007 197.383 169.836 197.383C238.177 197.383 300.524 168.236 332.531 121.279C333.521 119.781 332.791 117.959 330.915 117.19C328.986 116.421 326.64 116.988 325.65 118.445C294.946 163.379 235.258 191.31 169.836 191.31C106.76 191.31 49.0533 165.362 17.5153 123.262L30.1826 127.917C32.1114 128.646 34.4572 127.998 35.3955 126.46C36.3338 124.962 35.4998 123.141 33.5189 122.412L-6.8668e-05 110.065L2.97131 138.807Z" fill="white" fill-opacity="0.29"/>
</g>
<g clip-path="url(#clip1_30_260)">
<path d="M330.029 40.5758C329.872 38.9161 327.996 37.6612 325.806 37.7826C323.669 37.9041 322.053 39.4019 322.209 41.0616L323.669 55.0275C291.088 9.89132 229.993 -18 163.164 -18C94.8227 -18 32.4764 11.1462 0.4692 58.104C-0.521251 59.6018 0.208555 61.4235 2.0852 62.1926C4.01397 62.9618 6.35978 62.395 7.35023 60.9377C38.0542 16.0039 97.7419 -11.9279 163.164 -11.9279C226.24 -11.9279 283.947 14.0204 315.485 56.1205L302.817 51.4652C300.889 50.7365 298.543 51.3842 297.604 52.9225C296.666 54.4203 297.5 56.2419 299.481 56.9706L333 69.3172L330.029 40.5758Z" fill="white" fill-opacity="0.29"/>
</g>
<defs>
<clipPath id="clip0_30_260">
<rect width="333" height="87.3172" fill="white" transform="translate(333 197.383) rotate(180)"/>
</clipPath>
<clipPath id="clip1_30_260">
<rect width="333" height="87.3172" fill="white" transform="translate(0 -18)"/>
</clipPath>
</defs>
</svg>
