<?xml version="1.0" encoding="utf-8"?>
<!-- Generator: Adobe Illustrator 26.2.1, SVG Export Plug-In . SVG Version: 6.00 Build 0)  -->
<svg version="1.1" id="圖層_1" xmlns="http://www.w3.org/2000/svg" xmlns:xlink="http://www.w3.org/1999/xlink" x="0px" y="0px"
	 viewBox="0 0 90 90" style="enable-background:new 0 0 90 90;" xml:space="preserve">
<style type="text/css">
	.st0{clip-path:url(#SVGID_00000136408567874832787410000007701762504077277327_);}
	.st1{fill:#FFD8D8;}
</style>
<g>
	<defs>
		<rect id="SVGID_1_" width="90" height="90"/>
	</defs>
	<clipPath id="SVGID_00000100342658385461681580000001110045374549157269_">
		<use xlink:href="#SVGID_1_"  style="overflow:visible;"/>
	</clipPath>
	<g style="clip-path:url(#SVGID_00000100342658385461681580000001110045374549157269_);">
		<path class="st1" d="M83.2,43c-0.3-0.3-0.6-0.4-1-0.5c-0.4-0.1-0.8-0.1-1.1-0.1L76.5,43c0.3-1.7,0.4-3.5,0.4-5.2
			c0-8.5-3.4-16.6-9.4-22.6c-6-6-14.1-9.4-22.6-9.4s-16.6,3.4-22.6,9.4c-6,6-9.4,14.1-9.4,22.6c0,1.7,0.2,3.5,0.4,5.2l-4.6-0.7
			c-0.4-0.1-0.8,0-1.2,0.1c-0.4,0.1-0.7,0.3-1,0.6c-0.3,0.3-0.5,0.6-0.7,0.9c-0.2,0.4-0.2,0.7-0.2,1.1c0,10.4,4.1,20.3,11.5,27.7
			C24.7,80,34.6,84.2,45,84.2S65.3,80,72.7,72.7C80,65.3,84.2,55.4,84.2,45c0-0.4-0.1-0.8-0.2-1.1C83.7,43.5,83.5,43.2,83.2,43z
			 M18.5,37.8c0-3.7,0.8-7.5,2.3-10.9c1.5-3.4,3.8-6.5,6.6-9s6.1-4.4,9.7-5.5c3.6-1.1,7.3-1.5,11.1-1.1c3.7,0.4,7.3,1.6,10.5,3.6
			c3.2,1.9,6,4.5,8.2,7.6c2.2,3.1,3.6,6.5,4.3,10.2c0.7,3.7,0.6,7.5-0.2,11.1l-14.4,2.1c-0.9-4.3-5-6-9.1-7l-0.3-0.1v-9.3l0.6,0.2
			c0.8,0.2,1.5,0.5,2.2,0.8l0.6,0.3l0.1,0.1c0.2,0.2,0.5,0.3,0.8,0.4c0.3,0.1,0.6,0.1,0.9,0c0.3-0.1,0.6-0.2,0.8-0.3
			s0.4-0.4,0.6-0.6c0.2-0.3,0.3-0.6,0.4-0.9c0.1-0.3,0.1-0.7,0-1c-0.1-0.3-0.2-0.6-0.4-0.9c-0.2-0.3-0.4-0.5-0.7-0.7
			c-1.7-1.1-3.5-1.7-5.5-2l-0.4-0.1v-1.5c0-1.8-1.1-2.6-2.1-2.6c-1,0-2.1,0.8-2.1,2.6v1.1l-0.4,0.1c-2.6,0.4-8.7,2-9.3,8
			c-0.8,6.8,4,8.4,9.3,9.5l0.4,0.1v5.3l-23.6-3.5C18.7,41.9,18.5,39.8,18.5,37.8z M42.8,37.9l-0.6-0.2c-2.1-0.7-4.3-1.6-4.3-4.1
			s1.5-3.9,4.4-4.4l0.5-0.1V37.9z M51.4,46.7L47,47.3v-3.8l0.5,0.1c0.8,0.1,1.6,0.5,2.3,1C50.6,45.2,51.1,45.9,51.4,46.7L51.4,46.7z
			 M45,78.8c-8.4,0-16.5-3.1-22.7-8.8S12.2,56.5,11.4,48.2l32.8,4.9c0.3,0,0.5,0,0.8,0l33.7-4.9c-0.8,8.4-4.7,16.1-10.9,21.8
			C61.5,75.6,53.4,78.7,45,78.8z"/>
	</g>
</g>
</svg>
