<?xml version="1.0" encoding="utf-8"?>
<!-- Generator: Adobe Illustrator 26.2.1, SVG Export Plug-In . SVG Version: 6.00 Build 0)  -->
<svg version="1.1" id="圖層_1" xmlns="http://www.w3.org/2000/svg" xmlns:xlink="http://www.w3.org/1999/xlink" x="0px" y="0px"
	 viewBox="0 0 90 90" style="enable-background:new 0 0 90 90;" xml:space="preserve">
<style type="text/css">
	.st0{clip-path:url(#SVGID_00000078749070897455316500000012699901077738821293_);}
	.st1{fill:#FFD8D8;}
</style>
<g>
	<defs>
		<rect id="SVGID_1_" width="90" height="90"/>
	</defs>
	<clipPath id="SVGID_00000047049953925432139410000014248671918128364935_">
		<use xlink:href="#SVGID_1_"  style="overflow:visible;"/>
	</clipPath>
	<g style="clip-path:url(#SVGID_00000047049953925432139410000014248671918128364935_);">
		<path class="st1" d="M83.2,44.3c-0.3-0.3-0.6-0.4-1-0.5c-0.4-0.1-0.8-0.1-1.1-0.1l-10.5,1.5l4.9-4.9c1.5-1.5,2.3-3.4,2.3-5.5
			c0-2.1-0.8-4-2.3-5.5L55.7,9.5c-1.5-1.5-3.4-2.3-5.5-2.3s-4,0.8-5.5,2.3L15.5,38.6c-0.7,0.7-1.3,1.6-1.7,2.5c-0.4,0.9-0.6,2-0.6,3
			c0,0.1,0,0.1,0,0.2l-4.3-0.6c-0.4-0.1-0.8,0-1.2,0.1c-0.4,0.1-0.7,0.3-1,0.6c-0.3,0.3-0.5,0.6-0.7,0.9c-0.2,0.4-0.2,0.7-0.2,1.1
			c0,10.4,4.1,20.3,11.5,27.7c7.3,7.3,17.3,11.5,27.7,11.5s20.3-4.1,27.7-11.5c7.3-7.3,11.5-17.3,11.5-27.7c0-0.4-0.1-0.8-0.2-1.1
			C83.7,44.9,83.5,44.6,83.2,44.3z M58.2,19.6l13.5,13.5c0.4,0.4,0.7,1,0.7,1.7c0,0.3-0.1,0.6-0.2,0.9c-0.1,0.3-0.3,0.5-0.5,0.8
			L61.6,46.5l-17,2.5L30.8,47L58.2,19.6z M18.6,44.1c0-0.3,0.1-0.6,0.2-0.9c0.1-0.3,0.3-0.5,0.5-0.8l29.2-29.2
			c0.2-0.2,0.5-0.4,0.8-0.5s0.6-0.2,0.9-0.2c0.6,0,1.2,0.2,1.7,0.7l1.5,1.5l-31,31l-3.4-0.5C18.7,44.8,18.6,44.5,18.6,44.1
			L18.6,44.1z M45,80.1c-8.4,0-16.5-3.1-22.7-8.8c-6.2-5.7-10.1-13.4-10.9-21.8l32.8,4.9c0.3,0,0.5,0,0.8,0l33.7-4.9
			c-0.8,8.4-4.7,16.1-10.9,21.8S53.4,80.1,45,80.1z"/>
		<path class="st1" d="M59.1,40.9c0.5,0.5,1.2,0.8,1.9,0.8c0.7,0,1.4-0.3,1.9-0.8l3.7-3.7c0.5-0.5,0.7-1.2,0.7-1.9
			c0-0.7-0.3-1.4-0.8-1.9c-0.5-0.5-1.2-0.8-1.9-0.8c-0.7,0-1.4,0.2-1.9,0.7l-3.7,3.7c-0.3,0.3-0.5,0.5-0.6,0.9
			c-0.1,0.3-0.2,0.7-0.2,1s0.1,0.7,0.2,1C58.7,40.4,58.9,40.7,59.1,40.9z"/>
		<path class="st1" d="M58.2,32.4c0.7,0,1.4-0.3,1.9-0.8l0.5-0.5c0.5-0.5,0.7-1.2,0.7-1.9c0-0.7-0.3-1.4-0.8-1.9
			c-0.5-0.5-1.2-0.8-1.9-0.8c-0.7,0-1.4,0.2-1.9,0.7l-0.5,0.5c-0.4,0.4-0.6,0.9-0.7,1.4c-0.1,0.5,0,1.1,0.2,1.6
			c0.2,0.5,0.6,0.9,1,1.2C57.1,32.2,57.6,32.4,58.2,32.4z"/>
	</g>
</g>
</svg>
