<?xml version="1.0" encoding="utf-8"?>
<!-- Generator: Adobe Illustrator 26.2.1, SVG Export Plug-In . SVG Version: 6.00 Build 0)  -->
<svg version="1.1" id="圖層_1" xmlns="http://www.w3.org/2000/svg" xmlns:xlink="http://www.w3.org/1999/xlink" x="0px" y="0px"
	 viewBox="0 0 90 90" style="enable-background:new 0 0 90 90;" xml:space="preserve">
<style type="text/css">
	.st0{clip-path:url(#SVGID_00000012437308342347741840000003074824430564007047_);}
	.st1{fill:#FFD8D8;}
</style>
<g>
	<defs>
		<rect id="SVGID_1_" width="90" height="90"/>
	</defs>
	<clipPath id="SVGID_00000027575141902096445200000012236186172630421377_">
		<use xlink:href="#SVGID_1_"  style="overflow:visible;"/>
	</clipPath>
	<g style="clip-path:url(#SVGID_00000027575141902096445200000012236186172630421377_);">
		<path class="st1" d="M81.5,42.3c-0.7,0-1.4,0.3-1.9,0.8c-0.5,0.5-0.8,1.2-0.8,1.9c0,6.7-2,13.2-5.7,18.8c-3.7,5.6-9,9.9-15.1,12.4
			c-6.2,2.6-13,3.2-19.5,1.9c-6.5-1.3-12.6-4.5-17.3-9.2c-4.7-4.7-7.9-10.7-9.2-17.3c-1.3-6.5-0.6-13.3,1.9-19.5
			c2.6-6.2,6.9-11.4,12.4-15.1c5.6-3.7,12.1-5.7,18.8-5.7c0.7,0,1.4-0.3,1.9-0.8c0.5-0.5,0.8-1.2,0.8-1.9c0-0.7-0.3-1.4-0.8-1.9
			c-0.5-0.5-1.2-0.8-1.9-0.8c-7.7,0-15.3,2.3-21.8,6.6C16.8,16.7,11.8,22.9,8.8,30c-3,7.2-3.7,15-2.2,22.6c1.5,7.6,5.2,14.6,10.7,20
			c5.5,5.5,12.5,9.2,20,10.7c7.6,1.5,15.5,0.7,22.6-2.2c7.2-3,13.3-8,17.6-14.4c4.3-6.4,6.6-14,6.6-21.8c0-0.7-0.3-1.4-0.8-1.9
			C82.9,42.6,82.2,42.3,81.5,42.3z"/>
		<path class="st1" d="M28.4,61.6l15.4-3.7l36.4-36.4l1.8-1.8c3-3,2.7-8-0.5-11.3S73.3,5,70.3,7.9L32.1,46.2L28.4,61.6z M74.1,11.8
			c0.8-0.8,2.5-0.6,3.6,0.5s1.3,2.8,0.5,3.6l-1.8,1.8l-4.1-4.1L74.1,11.8z M37,48.9l31.5-31.5l4.1,4.1L41.1,53l-5.4,1.3L37,48.9z"/>
	</g>
</g>
</svg>
